<svg width="18" height="20" viewBox="0 0 18 20" fill="none" xmlns="http://www.w3.org/2000/svg">
<path d="M12.0001 17.4253C12.0003 17.9299 11.8097 18.4159 11.4666 18.7858C11.1235 19.1558 10.6532 19.3825 10.1501 19.4203L10.0001 19.4253H8.00009C7.49552 19.4255 7.00953 19.2349 6.63954 18.8918C6.26956 18.5487 6.04294 18.0784 6.00509 17.5753L6.00009 17.4253H12.0001ZM9.00009 0.425293C10.8151 0.425263 12.5591 1.13019 13.8643 2.39137C15.1695 3.65255 15.9339 5.37138 15.9961 7.18529L16.0001 7.42529V11.1893L17.8221 14.8333C17.9016 14.9923 17.9414 15.1682 17.9381 15.3459C17.9347 15.5237 17.8884 15.698 17.8029 15.8539C17.7175 16.0098 17.5956 16.1427 17.4476 16.2411C17.2996 16.3396 17.1299 16.4007 16.9531 16.4193L16.8381 16.4253H1.16209C0.984257 16.4253 0.809059 16.3823 0.651514 16.2998C0.493968 16.2173 0.358771 16.0978 0.25751 15.9516C0.156248 15.8055 0.0919401 15.6369 0.0700969 15.4604C0.0482538 15.2839 0.0695268 15.1048 0.132093 14.9383L0.178093 14.8333L2.00009 11.1893V7.42529C2.00009 5.56878 2.73759 3.7883 4.05035 2.47555C5.3631 1.16279 7.14358 0.425293 9.00009 0.425293Z" fill="#9A6AFF"/>
</svg>
