<svg width="15" height="16" viewBox="0 0 15 16" fill="none" xmlns="http://www.w3.org/2000/svg">
<path d="M2.03009 12.454C1.88792 12.3215 1.69987 12.2494 1.50557 12.2528C1.31127 12.2563 1.12588 12.335 0.988469 12.4724C0.851056 12.6098 0.772344 12.7952 0.768916 12.9895C0.765487 13.1838 0.83761 13.3718 0.97009 13.514L2.97009 15.514C3.11072 15.6544 3.30134 15.7333 3.50009 15.7333C3.69884 15.7333 3.88946 15.6544 4.03009 15.514L6.03009 13.514C6.10378 13.4453 6.16288 13.3625 6.20387 13.2705C6.24486 13.1785 6.26691 13.0792 6.26868 12.9785C6.27046 12.8778 6.25193 12.7778 6.21421 12.6844C6.17649 12.591 6.12035 12.5062 6.04913 12.435C5.97791 12.3637 5.89308 12.3076 5.79969 12.2699C5.7063 12.2322 5.60627 12.2136 5.50557 12.2154C5.40487 12.2172 5.30555 12.2392 5.21355 12.2802C5.12155 12.3212 5.03875 12.3803 4.97009 12.454L4.25009 13.174L4.25009 2.984C4.25009 2.78508 4.17107 2.59432 4.03042 2.45367C3.88977 2.31301 3.699 2.234 3.50009 2.234C3.30118 2.234 3.11041 2.31301 2.96976 2.45367C2.82911 2.59432 2.75009 2.78508 2.75009 2.984L2.75009 13.174L2.03009 12.454ZM8.97009 3.514C9.11072 3.65445 9.30134 3.73334 9.50009 3.73334C9.69884 3.73334 9.88947 3.65445 10.0301 3.514L10.7501 2.794V12.984C10.7501 13.1829 10.8291 13.3737 10.9698 13.5143C11.1104 13.655 11.3012 13.734 11.5001 13.734C11.699 13.734 11.8898 13.655 12.0304 13.5143C12.1711 13.3737 12.2501 13.1829 12.2501 12.984V2.794L12.9701 3.514C13.0388 3.58768 13.1216 3.64679 13.2136 3.68778C13.3056 3.72877 13.4049 3.75081 13.5056 3.75259C13.6063 3.75436 13.7063 3.73584 13.7997 3.69812C13.8931 3.6604 13.9779 3.60425 14.0491 3.53304C14.1203 3.46182 14.1765 3.37698 14.2142 3.28359C14.2519 3.19021 14.2705 3.09018 14.2687 2.98948C14.2669 2.88877 14.2449 2.78946 14.2039 2.69746C14.1629 2.60546 14.1038 2.52266 14.0301 2.454L12.0301 0.453997C11.8895 0.313546 11.6988 0.234657 11.5001 0.234657C11.3013 0.234657 11.1107 0.313546 10.9701 0.453997L8.97009 2.454C8.82964 2.59462 8.75075 2.78525 8.75075 2.984C8.75075 3.18275 8.82964 3.37337 8.97009 3.514Z" fill="white"/>
</svg>
