<svg width="21" height="18" viewBox="0 0 21 18" fill="none" xmlns="http://www.w3.org/2000/svg">
<path fill-rule="evenodd" clip-rule="evenodd" d="M18.7769 0.430003C19.024 0.325994 19.2945 0.290122 19.5602 0.32612C19.8259 0.362119 20.0771 0.468672 20.2876 0.634688C20.4981 0.800705 20.6603 1.02012 20.7573 1.27009C20.8542 1.52005 20.8824 1.79144 20.8389 2.056L18.5709 15.813C18.3509 17.14 16.8949 17.901 15.6779 17.24C14.6599 16.687 13.1479 15.835 11.7879 14.946C11.1079 14.501 9.0249 13.076 9.2809 12.062C9.5009 11.195 13.0009 7.937 15.0009 6C15.7859 5.239 15.4279 4.8 14.5009 5.5C12.1989 7.238 8.5029 9.881 7.2809 10.625C6.2029 11.281 5.6409 11.393 4.9689 11.281C3.7429 11.077 2.6059 10.761 1.6779 10.376C0.423898 9.856 0.484898 8.132 1.6769 7.63L18.7769 0.430003Z" fill="white"/>
</svg>
